<svg xmlns="http://www.w3.org/2000/svg" viewBox="0 0 32 32">
  <defs>
    <radialGradient id="g" cx="50%" cy="72%" r="60%">
      <stop offset="0" stop-color="#4fd8eb" stop-opacity=".35"/>
      <stop offset="1" stop-color="#4fd8eb" stop-opacity="0"/>
    </radialGradient>
  </defs>
  <rect width="32" height="32" rx="7.5" fill="#05080c"/>
  <rect width="32" height="32" rx="7.5" fill="url(#g)"/>
  <rect x=".5" y=".5" width="31" height="31" rx="7" fill="none" stroke="#4fd8eb" stroke-opacity=".28"/>
  <rect x="11" y="4.5" width="10" height="3.6" rx="1.1" fill="none" stroke="#e9f0f6" stroke-width="1.6"/>
  <path d="M12.7 8.1v1.3c0 1.2-2.8 1.8-2.8 3.8V25a2.8 2.8 0 0 0 2.8 2.8h6.6a2.8 2.8 0 0 0 2.8-2.8V13.2c0-2-2.8-2.6-2.8-3.8V8.1" fill="none" stroke="#e9f0f6" stroke-width="1.6" stroke-linejoin="round"/>
  <path d="M11.5 18.2h9V25a1.4 1.4 0 0 1-1.4 1.4h-6.2a1.4 1.4 0 0 1-1.4-1.4z" fill="#4fd8eb"/>
</svg>
